<svg width="59" height="50" viewBox="0 0 59 50" fill="none" xmlns="http://www.w3.org/2000/svg">
<g id="Camada_1" clip-path="url(#clip0_395_351)">
<g id="Group">
<path id="Vector" d="M31.867 13.3258C31.867 12.0976 30.8078 11.102 29.5012 11.102C28.1947 11.102 27.1355 12.0976 27.1355 13.3258V33.2313C27.1355 34.4595 28.1947 35.4551 29.5012 35.4551C30.8078 35.4551 31.867 34.4595 31.867 33.2313V13.3258Z" fill="#E950A4"/>
<path id="Vector_2" d="M29.5013 44.1285C31.1999 44.1285 32.577 42.8341 32.577 41.2374C32.577 39.6407 31.1999 38.3463 29.5013 38.3463C27.8026 38.3463 26.4255 39.6407 26.4255 41.2374C26.4255 42.8341 27.8026 44.1285 29.5013 44.1285Z" fill="#E950A4"/>
</g>
<path id="Vector_3" d="M29.5013 3.37301C30.2497 3.37301 32.1105 3.57057 33.2306 5.39681L54.8222 40.5508C55.9448 42.377 55.1964 43.9912 54.8222 44.6008C54.448 45.2103 53.3356 46.6246 51.0929 46.6246H7.9072C5.66192 46.6246 4.54953 45.2079 4.17789 44.6008C3.80367 43.9912 3.05525 42.3794 4.17789 40.5508L25.7694 5.39681C26.8921 3.57057 28.7529 3.37301 29.4988 3.37301M29.4988 0C26.8383 0 24.1803 1.23597 22.6604 3.71031L1.06885 38.8667C-1.97099 43.8154 1.82752 50 7.9072 50H51.0929C57.17 50 60.9711 43.8154 57.9312 38.8667L36.3397 3.71031C34.8197 1.23597 32.1618 0 29.5013 0L29.4988 0Z" fill="#E950A4"/>
</g>
<defs>
<clipPath id="clip0_395_351">
<rect width="59" height="50" fill="white"/>
</clipPath>
</defs>
</svg>
